<?xml version="1.0" encoding="UTF-8"?>
<svg id="Layer_2" data-name="Layer 2" xmlns="http://www.w3.org/2000/svg" viewBox="0 0 178.33 86.49">
  <defs>
    <style>
      .cls-1 {
        fill: #fff;
      }
    </style>
  </defs>
  <g id="PRINT">
    <g>
      <path class="cls-1" d="M70.06,13.71c-10.35-3.49-19.97-2.91-29.19,2.77-12.55,7.72-17.86,23.61-12.12,37.22,1.37,3.24.79,4.54-2.54,4.95-2.2.27-4.37.72-6.57.93-5.33.51-5.55.36-6.73-5.01-1.83-8.3-.99-16.38,2.67-24.03,1.36-2.84,1.64-3.97-2.24-4-6.87-.05-12.32-5.62-12.75-12.38C.2,7.99,5.24,1.63,11.34.61c7.12-1.19,13.06,2.45,15.16,9.28.15.5.39,1.01.39,1.51.03,3.92,1.65,3.36,4.28,1.86,12.16-6.92,24.55-6.89,37.03-.8.67.33,1.25.83,1.87,1.25Z"/>
      <path class="cls-1" d="M16.94,74.25c-3.38.25-6.77.65-10.15.08-5.42-.93-7.65-4.12-6.49-9.48,1.2-5.57,5.03-9.45,8.48-13.67.87.83.61,1.33.47,1.81-2,6.82-.18,9.63,6.88,10.03,7.3.41,14.1-1.89,21.48-4.43-7.47-5.63-10.98-12.1-5.53-20.56,2.92-4.54,9.26-6.62,14.57-5.1,6.49,1.86,9.14,6.6,9.4,17.24,10.03-5.22,18.87-11.71,27.1-19.19-2.34,5.96-7.51,9.62-11.41,14.29l.03-.04c-16.41,13.25-34.11,24.06-54.9,29.03l.05-.02Z"/>
      <path class="cls-1" d="M38.74,82.27c4.89-3.03,9.4-5.86,13.97-8.61.74-.44,1.74-.69,2.59-.65,16.47.77,30.77-11.09,32.21-27.2.03-.33.31-.65.51-1.05,2.6,6.54-3.51,21.74-10.83,28.98-11.59,11.46-29.53,13.05-38.46,8.52Z"/>
      <path class="cls-1" d="M73.05,49.12c-6.87,10.34-15.9,18.53-25.95,25.66-6.28,4.46-12.86,8.4-20.31,10.62-1.37.41-2.77.79-4.19.94-3.05.32-6.15.43-7.57-3.15-1.18-2.96.36-6.56,3.51-8.55,0,0-.05.02-.05.02,7,3.74,13.53,1.52,20.03-1.52,8.44-3.94,16.17-9.03,23.19-15.08,4.3-3.7,8.35-7.74,11.67-12.43"/>
      <path class="cls-1" d="M68.91,17.95c-11.28-2.53-19.63,1.63-25.96,10.78-.52.76-1.05,1.52-2.01,1.76-3.55.9-6.84,2.34-9.72,4.84,1.67-8.59,6.96-14.23,14.37-18.03,7.84-4.02,15.68-3.72,23.31.65Z"/>
      <path class="cls-1" d="M84.61,41.97c1.53,15.03-13.63,28.51-25.7,27.25,3.59-3.34,6.45-7.03,10.56-8.92,7.64-3.5,12.25-9.82,14.24-17.23.11-.42.36-1.1.9-1.1Z"/>
      <path class="cls-1" d="M96.23,4.42V0h12.97v4.42h-3.91v15.54h-5.2V4.42h-3.86Z"/>
      <path class="cls-1" d="M115.23,19.14c-.04-.28-.07-.58-.11-.89h-.06c-.28.67-.72,1.17-1.33,1.51-.61.34-1.3.5-2.08.5s-1.41-.1-1.94-.29c-.53-.19-.96-.49-1.3-.88-.33-.39-.58-.86-.73-1.4s-.22-1.14-.22-1.79c0-.71.07-1.32.21-1.85.14-.52.37-.97.68-1.35s.75-.71,1.29-.98,1.21-.5,2.01-.68l1.98-.48c.54-.13.92-.32,1.15-.57.22-.25.33-.61.33-1.08,0-.93-.43-1.4-1.28-1.4-.49,0-.84.14-1.06.41-.22.27-.35.81-.36,1.61h-4.36c0-1.1.2-1.98.59-2.64.39-.66.88-1.17,1.45-1.54s1.2-.61,1.87-.73c.67-.12,1.3-.18,1.87-.18.87,0,1.68.07,2.42.21.74.14,1.37.39,1.9.75.53.36.94.86,1.23,1.48s.43,1.43.43,2.42v7.38c0,.71.03,1.33.08,1.87s.19,1.01.39,1.4h-4.86c-.09-.26-.16-.53-.2-.81ZM114.76,16.35c.24-.41.36-1.03.36-1.87v-1.82h-.06c-.15.21-.38.33-.68.38-.31.05-.65.15-1.02.32-.39.19-.66.43-.81.74-.15.31-.22.71-.22,1.22s.11.9.34,1.2.52.45.89.45c.56,0,.96-.2,1.2-.61Z"/>
      <path class="cls-1" d="M127.17,0v19.95h-5.03V0h5.03Z"/>
      <path class="cls-1" d="M133.85,15.23c0,.82.14,1.36.42,1.63.28.27.6.41.95.41.45,0,.8-.18,1.05-.55.25-.36.38-1.06.38-2.08h4.53c-.04,1.86-.51,3.27-1.43,4.21-.91.94-2.41,1.41-4.5,1.41-1.21,0-2.23-.13-3.05-.4-.82-.27-1.48-.72-1.98-1.34s-.86-1.44-1.08-2.45c-.21-1.01-.32-2.23-.32-3.66s.12-2.68.36-3.69c.24-1.01.62-1.83,1.15-2.46.52-.63,1.19-1.09,2-1.38.81-.29,1.78-.43,2.92-.43,1.01,0,1.89.12,2.64.36.75.24,1.39.65,1.9,1.22.51.57.89,1.31,1.15,2.24s.38,2.07.38,3.45v1.54h-7.46v1.98ZM136.32,8.08c-.19-.37-.56-.56-1.1-.56s-.88.19-1.08.56c-.2.37-.29.96-.29,1.76v.67h2.77v-.67c0-.8-.1-1.39-.29-1.76Z"/>
      <path class="cls-1" d="M147.57,4.83v1.84h.06c.65-1.49,1.87-2.24,3.66-2.24.56,0,1.08.06,1.55.18s.89.34,1.24.66.63.74.84,1.26c.21.52.31,1.19.31,2.01v11.4h-5.03v-9.98c0-.63-.09-1.09-.28-1.37-.19-.28-.5-.42-.95-.42s-.76.14-.95.42c-.19.28-.28.74-.28,1.37v9.98h-5.03V4.83h4.86Z"/>
      <path class="cls-1" d="M157.96,4.83V.39h5.03v4.44h1.98v3.38h-1.98v7.21c0,.43.1.73.29.91.2.18.5.27.91.27h.78v3.35c-.47,0-.93.01-1.4.04-.47.03-.91.04-1.34.04-.76,0-1.42-.03-1.96-.1-.54-.07-.98-.23-1.33-.49-.35-.26-.6-.65-.75-1.16-.16-.51-.24-1.19-.24-2.03v-8.05h-1.68v-3.38h1.68Z"/>
      <path class="cls-1" d="M105.83,33.43c0-.6-.12-1.1-.36-1.52-.24-.42-.62-.63-1.12-.63-.56,0-.97.18-1.23.55-.26.36-.39.77-.39,1.22,0,.65.21,1.17.63,1.55.42.38.94.71,1.58.99.63.28,1.31.56,2.04.85.73.29,1.41.67,2.04,1.13.63.47,1.16,1.08,1.58,1.83.42.75.63,1.74.63,2.95,0,2.12-.61,3.67-1.82,4.63-1.21.96-2.96,1.44-5.25,1.44-1.08,0-2.04-.09-2.87-.27-.83-.18-1.53-.48-2.1-.92-.57-.44-1-1.01-1.3-1.72-.3-.71-.45-1.58-.45-2.63v-.7h5.03v.48c0,.86.16,1.46.48,1.8.32.35.73.52,1.23.52.54,0,.95-.19,1.24-.56s.43-.83.43-1.37c0-.65-.2-1.17-.6-1.55-.4-.38-.9-.71-1.51-.98-.61-.27-1.26-.54-1.97-.82-.71-.28-1.36-.64-1.97-1.09-.61-.45-1.11-1.03-1.51-1.76-.4-.73-.6-1.68-.6-2.85,0-2.03.54-3.58,1.62-4.64,1.08-1.06,2.72-1.59,4.92-1.59s3.92.49,4.93,1.47,1.52,2.54,1.52,4.68h-4.86v-.48Z"/>
      <path class="cls-1" d="M117.79,32.98v2.07h.06c.58-1.64,1.72-2.46,3.44-2.46s2.85.68,3.52,2.04c.67,1.36,1.01,3.44,1.01,6.23,0,1.45-.11,2.66-.33,3.63-.22.97-.54,1.75-.94,2.33-.4.59-.89,1-1.45,1.23-.57.23-1.21.35-1.91.35s-1.35-.14-1.91-.42c-.57-.28-.98-.81-1.24-1.59h-.06v6.54h-5.03v-19.95h4.86ZM118.01,42.56c.04.54.11.97.21,1.3.1.33.25.55.43.68.19.13.42.2.7.2.3,0,.54-.06.73-.2.19-.13.33-.36.43-.68.1-.32.17-.76.21-1.3.04-.54.05-1.22.05-2.04s-.02-1.49-.05-2.03c-.04-.53-.11-.96-.21-1.29-.1-.32-.25-.55-.43-.68-.19-.13-.43-.19-.73-.19-.28,0-.51.06-.7.19-.19.13-.33.36-.43.68-.1.33-.17.76-.21,1.29-.04.53-.06,1.21-.06,2.03s.02,1.5.06,2.04Z"/>
      <path class="cls-1" d="M132.41,28.14v6.51h.05c.43-.8.96-1.35,1.61-1.63.64-.29,1.27-.43,1.89-.43.52,0,1.02.06,1.49.19.48.13.9.35,1.26.67.36.32.65.74.87,1.27.21.53.32,1.19.32,1.97v11.4h-5.03v-9.98c0-.63-.09-1.09-.28-1.37-.19-.28-.5-.42-.95-.42s-.76.14-.95.42c-.19.28-.28.74-.28,1.37v9.98h-5.03v-19.95h5.03Z"/>
      <path class="cls-1" d="M146.49,43.37c0,.82.14,1.36.42,1.63s.6.41.95.41c.45,0,.8-.18,1.05-.55.25-.36.38-1.06.38-2.08h4.53c-.04,1.86-.51,3.27-1.43,4.21-.91.94-2.41,1.41-4.5,1.41-1.21,0-2.23-.13-3.05-.4s-1.48-.72-1.98-1.34c-.5-.62-.86-1.44-1.08-2.45s-.32-2.23-.32-3.66.12-2.68.36-3.69c.24-1.01.62-1.83,1.15-2.46s1.19-1.09,2-1.38c.81-.29,1.78-.43,2.92-.43,1.01,0,1.89.12,2.64.36s1.39.65,1.9,1.22.89,1.31,1.15,2.24c.25.92.38,2.07.38,3.45v1.54h-7.46v1.98ZM148.96,36.22c-.19-.37-.56-.56-1.1-.56s-.88.19-1.08.56c-.19.37-.29.96-.29,1.76v.67h2.77v-.67c0-.8-.1-1.39-.29-1.76Z"/>
      <path class="cls-1" d="M170.87,43.42c0,.82.14,1.36.42,1.63s.6.41.95.41c.45,0,.8-.18,1.05-.55.25-.36.38-1.06.38-2.08h4.53c-.04,1.86-.51,3.27-1.43,4.21-.91.94-2.41,1.41-4.5,1.41-1.21,0-2.23-.13-3.05-.4s-1.48-.72-1.98-1.34c-.5-.62-.86-1.44-1.08-2.45s-.32-2.23-.32-3.66.12-2.68.36-3.69c.24-1.01.62-1.83,1.15-2.46s1.19-1.09,2-1.38c.81-.29,1.78-.43,2.92-.43,1.01,0,1.89.12,2.64.36s1.39.65,1.9,1.22c.51.57.89,1.31,1.15,2.24.25.92.38,2.07.38,3.45v1.54h-7.46v1.98ZM173.34,36.26c-.19-.37-.56-.56-1.1-.56s-.88.19-1.08.56c-.19.37-.29.96-.29,1.76v.67h2.77v-.67c0-.8-.1-1.39-.29-1.76Z"/>
      <path class="cls-1" d="M160.07,32.98v2.4h.06c.28-.91.73-1.61,1.34-2.08s1.29-.71,2.04-.71h.81v4.69c-.22-.04-.44-.06-.64-.08-.21-.02-.41-.03-.62-.03-.89,0-1.59.2-2.08.59-.49.39-.74,1.09-.74,2.1v8.24h-5.03v-15.12h4.86Z"/>
      <path class="cls-1" d="M100.37,61.05c1.03-.97,2.55-1.45,4.58-1.45,1.21,0,2.22.12,3.02.36.8.24,1.44.6,1.91,1.06.48.47.81,1.04,1.01,1.72.2.68.29,1.46.29,2.33,0,.39-.05.8-.14,1.22-.09.42-.25.81-.46,1.17-.21.36-.5.68-.85.96s-.79.48-1.31.59v.06c1.15.22,1.97.73,2.43,1.52.47.79.7,1.73.7,2.81,0,2.24-.54,3.84-1.62,4.82-1.08.98-2.69,1.47-4.83,1.47-1.12,0-2.09-.09-2.92-.28s-1.51-.52-2.05-1.01c-.54-.48-.94-1.13-1.2-1.94-.26-.81-.39-1.81-.39-3.01h4.86c0,.56.03,1.03.1,1.4.06.37.15.69.26.95.22.48.62.73,1.17.73.3,0,.54-.04.73-.13s.33-.24.43-.48.17-.55.21-.95c.04-.4.06-.91.06-1.52,0-.97-.15-1.62-.46-1.96-.31-.34-.79-.5-1.44-.5h-1.31v-3.24h.75c.39,0,.73-.04,1.01-.11.28-.08.51-.21.7-.42s.33-.49.42-.85c.09-.36.14-.83.14-1.41,0-.84-.11-1.4-.32-1.69-.21-.29-.54-.43-.99-.43-.5,0-.86.19-1.08.59-.21.39-.32,1.11-.32,2.15h-4.69c.06-2.07.6-3.58,1.62-4.53Z"/>
      <path class="cls-1" d="M120.88,63.23c-.21-.26-.55-.39-1.04-.39-.37,0-.7.15-.99.46-.29.31-.43.78-.43,1.41v3.16h.06c.22-.48.64-.87,1.24-1.15.61-.28,1.3-.42,2.08-.42.71,0,1.35.1,1.93.29.58.2,1.08.52,1.49.98.42.46.74,1.07.96,1.84.22.77.34,1.74.34,2.89,0,1.34-.15,2.49-.43,3.44-.29.95-.72,1.72-1.29,2.3-.57.59-1.26,1.01-2.08,1.26-.82.25-1.76.38-2.82.38-1.14,0-2.13-.13-2.99-.38-.86-.25-1.57-.7-2.14-1.34-.57-.64-1-1.5-1.29-2.57s-.43-2.42-.43-4.04v-2.21c0-1.53.08-2.88.24-4.07.16-1.18.48-2.18.96-2.99.48-.81,1.17-1.43,2.07-1.86.89-.43,2.08-.64,3.55-.64,1.27,0,2.3.14,3.11.42.81.28,1.45.66,1.91,1.13.47.48.79,1.02.96,1.63s.26,1.25.26,1.9h-4.86c-.02-.67-.15-1.16-.39-1.45ZM118.74,75.86c.21.45.59.67,1.13.67.48,0,.85-.22,1.09-.67s.36-1.3.36-2.57-.11-2.12-.32-2.57c-.22-.45-.59-.67-1.13-.67-.49,0-.85.22-1.09.67-.24.45-.36,1.3-.36,2.57s.11,2.12.32,2.57Z"/>
      <path class="cls-1" d="M127.99,64.74c.27-1.3.68-2.34,1.23-3.1.55-.76,1.25-1.29,2.1-1.59.85-.3,1.85-.45,3.01-.45s2.16.15,3,.45,1.55.83,2.1,1.59c.55.76.96,1.8,1.23,3.1.27,1.3.4,2.95.4,4.95s-.13,3.67-.4,4.96c-.27,1.3-.68,2.32-1.23,3.07-.55.75-1.25,1.27-2.1,1.55-.85.28-1.85.42-3,.42s-2.16-.14-3.01-.42c-.85-.28-1.55-.8-2.1-1.55s-.96-1.78-1.23-3.07c-.27-1.29-.4-2.95-.4-4.96s.14-3.64.4-4.95ZM133.15,75.79c.24.49.63.74,1.17.74s.93-.25,1.17-.74c.24-.49.36-1.44.36-2.84v-6.54c0-1.4-.12-2.34-.36-2.84-.24-.49-.63-.74-1.17-.74s-.93.25-1.17.74c-.24.49-.36,1.44-.36,2.84v6.54c0,1.4.12,2.34.36,2.84Z"/>
    </g>
  </g>
</svg>