<?xml version="1.0" encoding="UTF-8"?>
<!DOCTYPE svg PUBLIC "-//W3C//DTD SVG 1.1//EN" "http://www.w3.org/Graphics/SVG/1.1/DTD/svg11.dtd">
<!-- Creator: CorelDRAW -->
<svg xmlns="http://www.w3.org/2000/svg" xml:space="preserve" width="6.82666in" height="6.82666in" style="shape-rendering:geometricPrecision; text-rendering:geometricPrecision; image-rendering:optimizeQuality; fill-rule:evenodd; clip-rule:evenodd"
viewBox="0 0 6.82666 6.82666"
 xmlns:xlink="http://www.w3.org/1999/xlink">
 <defs>
  <style type="text/css">
   <![CDATA[
    .fil0 {fill:none}
    .fil1 {fill:#5C6BC0}
    .fil2 {fill:#9FA8DA;fill-rule:nonzero}
   ]]>
  </style>
 </defs>
 <g id="Layer_x0020_1">
  <metadata id="CorelCorpID_0Corel-Layer"/>
  <g id="_209414136">
   <rect id="_209415048" class="fil0" width="6.82666" height="6.82666"/>
   <rect id="_209414160" class="fil0" x="0.853331" y="0.853331" width="5.12" height="5.12"/>
  </g>
  <path class="fil1" d="M1.49976 1.93074c-0.381878,0.884874 0.257248,2.57143 0.93024,3.22418 0.451638,0.438012 1.41447,0.496 1.25429,0.0229134l-0.252854 -0.747087c-0.038437,-0.11361 -0.165453,-0.165795 -0.275799,-0.128437l-0.426469 0.144378c-0.450201,-0.641909 -0.5785,-1.03478 -0.615681,-1.81585l0.303449 -0.102535 0.12361 -0.0419173c0.110528,-0.0374528 0.179173,-0.15611 0.140681,-0.269748l-0.253067 -0.747169c-0.141638,-0.418157 -0.784028,0.126677 -0.928398,0.461276z"/>
  <polygon class="fil2" points="4.76875,2.59125 5.51542,3.33791 5.59083,3.41333 5.51542,3.48875 4.76875,4.23541 4.61792,4.08458 5.1825,3.52 2.98667,3.52 2.98667,3.30666 5.1825,3.30666 4.61792,2.74208 "/>
 </g>
</svg>
